                                                                        S      1
,,26H1st CAD scratch drawing v1,26H1st CAD scratch drawing v1,7Hunknown,G      1
7Hunknown,32,38,7,99,15,,1.,2,2HMM,1,0.08,15H20190404.011000,0.01,      G      2
10000.,8Hjdumitru,7Hunknown,11,0,15H20190404.060714;                    G      3
     186       1                                                00000000D      1
     186             -71       1       0                               0D      2
     514       2                                                00010000D      3
     514                       1       1                               0D      4
     510       3                                                00010000D      5
     510             -71       1       1                               0D      6
     510       4                                                00010000D      7
     510             -71       1       1                               0D      8
     510       5                                                00010000D      9
     510             -71       1       1                               0D     10
     510       6                                                00010000D     11
     510             -71       1       1                               0D     12
     510       7                                                00010000D     13
     510             -71       1       1                               0D     14
     510       8                                                00010000D     15
     510             -71       1       1                               0D     16
     508       9                                                00010000D     17
     508                       1       1                               0D     18
     508      10                                                00010000D     19
     508                       1       1                               0D     20
     508      11                                                00010000D     21
     508                       1       1                               0D     22
     508      12                                                00010000D     23
     508                       1       1                               0D     24
     508      13                                                00010000D     25
     508                       1       1                               0D     26
     508      14                                                00010000D     27
     508                       1       1                               0D     28
     126      15                                                00010000D     29
     126       0               4       0                               0D     30
     126      19                                                00010000D     31
     126       0               3       0                               0D     32
     126      22                                                00010000D     33
     126       0               4       0                               0D     34
     126      26                                                00010000D     35
     126       0               3       0                               0D     36
     126      29                                                00010000D     37
     126       0               3       0                               0D     38
     126      32                                                00010000D     39
     126       0               3       0                               0D     40
     126      35                                                00010000D     41
     126       0               3       0                               0D     42
     126      38                                                00010000D     43
     126       0               3       0                               0D     44
     126      41                                                00010000D     45
     126       0               3       0                               0D     46
     126      44                                                00010000D     47
     126       0               3       0                               0D     48
     126      47                                                00010000D     49
     126       0               4       0                               0D     50
     126      51                                                00010000D     51
     126       0               4       0                               0D     52
     128      55                                                00010000D     53
     128       0     -71       6       0                               0D     54
     128      61                                                00010000D     55
     128       0     -71       6       0                               0D     56
     128      67                                                00010000D     57
     128       0     -71       6       0                               0D     58
     128      73                                                00010000D     59
     128       0     -71       6       0                               0D     60
     128      79                                                00010000D     61
     128       0     -71       7       0                               0D     62
     128      86                                                00010000D     63
     128       0     -71       7       0                               0D     64
     502      93                                                00010000D     65
     502                       6       1                               0D     66
     504      99                                                00010001D     67
     504                       3       1                               0D     68
     406     102                                                00000000D     69
     406                       1      15                               0D     70
     314     103                                                00000200D     71
     314                       2       0                               0D     72
186,3,1,0,0,1,69;                                                      1P      1
514,6,5,1,7,1,9,1,11,1,13,1,15,1;                                      3P      2
510,53,1,1,17;                                                         5P      3
510,55,1,1,19;                                                         7P      4
510,57,1,1,21;                                                         9P      5
510,59,1,1,23;                                                        11P      6
510,61,1,1,25;                                                        13P      7
510,63,1,1,27;                                                        15P      8
508,4,0,67,1,0,0,0,67,2,1,0,0,67,3,0,0,0,67,4,0,0;                    17P      9
508,4,0,67,5,1,0,0,67,4,1,0,0,67,6,0,0,0,67,7,0,0;                    19P     10
508,4,0,67,8,1,0,0,67,7,1,0,0,67,9,0,0,0,67,10,0,0;                   21P     11
508,4,0,67,11,1,0,0,67,10,1,0,0,67,12,0,0,0,67,2,0,0;                 23P     12
508,4,0,67,12,1,0,0,67,9,1,0,0,67,6,1,0,0,67,3,1,0;                   25P     13
508,4,0,67,11,0,0,0,67,1,1,0,0,67,5,0,0,0,67,8,0,0;                   27P     14
126,1,1,0,0,1,0,0.262206805869543,0.262206805869543,                  29P     15
1.09533265486265,1.09533265486265,1.,1.,0.,3.06984448340573,          29P     16
-2.37793194130457,0.,3.06984448340573,5.95332654862652,               29P     17
0.262206805869543,1.09533265486265,0.,0.,0.;                          29P     18
126,1,1,0,0,1,0,0.,0.,0.8,0.8,1.,1.,0.,3.06984448340573,              31P     19
-2.37793194130457,8.,3.06984448340573,-2.37793194130457,0.,0.8,       31P     20
0.,0.,0.;                                                             31P     21
126,1,1,0,0,1,0,-1.09533265486265,-1.09533265486265,                  33P     22
-0.262206805869543,-0.262206805869543,1.,1.,8.,3.06984448340573,      33P     23
5.95332654862652,8.,3.06984448340573,-2.37793194130457,               33P     24
-1.09533265486265,-0.262206805869543,0.,0.,0.;                        33P     25
126,1,1,0,0,1,0,0.,0.,0.8,0.8,1.,1.,0.,3.06984448340573,              35P     26
5.95332654862652,8.,3.06984448340573,5.95332654862652,0.,0.8,0.,      35P     27
0.,0.;                                                                35P     28
126,1,1,0,0,1,0,0.,0.,0.436199084143173,0.436199084143173,1.,1.,      37P     29
0.,7.43183532483746,5.95332654862652,0.,3.06984448340573,             37P     30
5.95332654862652,0.,0.436199084143173,0.,0.,0.;                       37P     31
126,1,1,0,0,1,0,0.,0.,0.436199084143173,0.436199084143173,1.,1.,      39P     32
8.,7.43183532483746,5.95332654862652,8.,3.06984448340573,             39P     33
5.95332654862652,0.,0.436199084143173,0.,0.,0.;                       39P     34
126,1,1,0,0,1,0,0.,0.,0.8,0.8,1.,1.,0.,7.43183532483746,              41P     35
5.95332654862652,8.,7.43183532483746,5.95332654862652,0.,0.8,0.,      41P     36
0.,0.;                                                                41P     37
126,1,1,0,0,1,0,0.,0.,0.833125848993109,0.833125848993109,1.,1.,      43P     38
0.,7.43183532483746,-2.37793194130457,0.,7.43183532483746,            43P     39
5.95332654862652,0.,0.833125848993109,0.,0.,0.;                       43P     40
126,1,1,0,0,1,0,0.,0.,0.833125848993109,0.833125848993109,1.,1.,      45P     41
8.,7.43183532483746,-2.37793194130457,8.,7.43183532483746,            45P     42
5.95332654862652,0.,0.833125848993109,0.,0.,0.;                       45P     43
126,1,1,0,0,1,0,0.,0.,0.8,0.8,1.,1.,0.,7.43183532483746,              47P     44
-2.37793194130457,8.,7.43183532483746,-2.37793194130457,0.,0.8,       47P     45
0.,0.,0.;                                                             47P     46
126,1,1,0,0,1,0,0.306984448340573,0.306984448340573,                  49P     47
0.743183532483746,0.743183532483746,1.,1.,0.,3.06984448340573,        49P     48
-2.37793194130457,0.,7.43183532483746,-2.37793194130457,              49P     49
0.306984448340573,0.743183532483746,0.,0.,0.;                         49P     50
126,1,1,0,0,1,0,0.306984448340573,0.306984448340573,                  51P     51
0.743183532483746,0.743183532483746,1.,1.,8.,3.06984448340573,        51P     52
-2.37793194130457,8.,7.43183532483746,-2.37793194130457,              51P     53
0.306984448340573,0.743183532483746,0.,0.,0.;                         51P     54
128,1,1,1,1,0,0,1,0,0,-0.001,-0.001,0.834125848993109,                53P     55
0.834125848993109,-0.001,-0.001,0.801,0.801,1.,1.,1.,1.,-0.01,        53P     56
3.06984448340573,5.96332654862652,-0.01,3.06984448340573,             53P     57
-2.38793194130457,8.01,3.06984448340573,5.96332654862652,8.01,        53P     58
3.06984448340573,-2.38793194130457,-0.001,0.834125848993109,          53P     59
-0.001,0.801;                                                         53P     60
128,1,1,1,1,0,0,1,0,0,-0.001,-0.001,0.437199084143173,                55P     61
0.437199084143173,-0.001,-0.001,0.801,0.801,1.,1.,1.,1.,-0.01,        55P     62
7.44183532483746,5.95332654862652,-0.01,3.05984448340574,             55P     63
5.95332654862652,8.01,7.44183532483746,5.95332654862652,8.01,         55P     64
3.05984448340574,5.95332654862652,-0.001,0.437199084143173,           55P     65
-0.001,0.801;                                                         55P     66
128,1,1,1,1,0,0,1,0,0,-0.001,-0.001,0.834125848993109,                57P     67
0.834125848993109,-0.001,-0.001,0.801,0.801,1.,1.,1.,1.,-0.01,        57P     68
7.43183532483746,-2.38793194130457,-0.01,7.43183532483746,            57P     69
5.96332654862652,8.01,7.43183532483746,-2.38793194130457,8.01,        57P     70
7.43183532483746,5.96332654862652,-0.001,0.834125848993109,           57P     71
-0.001,0.801;                                                         57P     72
128,1,1,1,1,0,0,1,0,0,-0.001,-0.001,0.437199084143173,                59P     73
0.437199084143173,-0.001,-0.001,0.801,0.801,1.,1.,1.,1.,-0.01,        59P     74
3.05984448340574,-2.37793194130457,-0.01,7.44183532483746,            59P     75
-2.37793194130457,8.01,3.05984448340574,-2.37793194130457,8.01,       59P     76
7.44183532483746,-2.37793194130457,-0.001,0.437199084143173,          59P     77
-0.001,0.801;                                                         59P     78
128,1,1,1,1,0,0,1,0,0,-0.417562924496555,-0.417562924496555,          61P     79
0.417562924496555,0.417562924496555,-0.219099542071586,               61P     80
-0.219099542071586,0.219099542071586,0.219099542071586,1.,1.,1.,      61P     81
1.,8.,3.05984448340574,5.96332654862652,8.,3.05984448340574,          61P     82
-2.38793194130457,8.,7.44183532483746,5.96332654862652,8.,            61P     83
7.44183532483746,-2.38793194130457,-0.417562924496555,                61P     84
0.417562924496555,-0.219099542071586,0.219099542071586;               61P     85
128,1,1,1,1,0,0,1,0,0,-0.219099542071586,-0.219099542071586,          63P     86
0.219099542071586,0.219099542071586,-0.417562924496555,               63P     87
-0.417562924496555,0.417562924496555,0.417562924496555,1.,1.,1.,      63P     88
1.,0.,7.44183532483746,-2.38793194130457,0.,3.05984448340574,         63P     89
-2.38793194130457,0.,7.44183532483746,5.96332654862652,0.,            63P     90
3.05984448340574,5.96332654862652,-0.219099542071586,                 63P     91
0.219099542071586,-0.417562924496555,0.417562924496555;               63P     92
502,8,0.,3.06984448340573,-2.37793194130457,0.,3.06984448340573,      65P     93
5.95332654862652,8.,3.06984448340573,-2.37793194130457,8.,            65P     94
3.06984448340573,5.95332654862652,0.,7.43183532483746,                65P     95
5.95332654862652,8.,7.43183532483746,5.95332654862652,0.,             65P     96
7.43183532483746,-2.37793194130457,8.,7.43183532483746,               65P     97
-2.37793194130457;                                                    65P     98
504,12,29,65,1,65,2,31,65,1,65,3,33,65,4,65,3,35,65,2,65,4,37,        67P     99
65,5,65,2,39,65,6,65,4,41,65,5,65,6,43,65,7,65,5,45,65,8,65,6,        67P    100
47,65,7,65,8,49,65,1,65,7,51,65,3,65,8;                               67P    101
406,1,5HBody1;                                                        69P    102
314,62.7450980392157,62.7450980392157,62.7450980392157,13HSteel       71P    103
- Satin;                                                              71P    104
S      1G      3D     72P    104                                        T      1
